<svg width="20" height="20" viewBox="0 0 20 20" fill="none" xmlns="http://www.w3.org/2000/svg">
<g clip-path="url(#clip0_398_7661)">
<path d="M10.0001 6.32281C9.33319 6.32275 8.68129 6.52045 8.12679 6.8909C7.57229 7.26134 7.1401 7.78791 6.88488 8.40399C6.62966 9.02008 6.56286 9.69801 6.69294 10.3521C6.82303 11.0061 7.14414 11.6069 7.61568 12.0784C8.08722 12.55 8.68801 12.8711 9.34205 13.0012C9.9961 13.1313 10.674 13.0645 11.2901 12.8092C11.9062 12.554 12.4328 12.1218 12.8032 11.5673C13.1737 11.0128 13.3714 10.3609 13.3713 9.69407C13.3703 8.80026 13.0148 7.94334 12.3828 7.31133C11.7508 6.67931 10.8939 6.32381 10.0001 6.32281ZM10.0001 12.4406C9.45682 12.4407 8.92577 12.2797 8.47406 11.9779C8.02235 11.6761 7.67026 11.2472 7.46233 10.7453C7.25441 10.2435 7.19997 9.69123 7.30591 9.15843C7.41185 8.62563 7.67341 8.13621 8.05751 7.75206C8.44162 7.36792 8.93101 7.1063 9.4638 7.0003C9.99658 6.8943 10.5488 6.94867 11.0507 7.15654C11.5526 7.36441 11.9816 7.71645 12.2834 8.16812C12.5852 8.6198 12.7463 9.15083 12.7463 9.69407C12.7454 10.4222 12.4558 11.1202 11.941 11.6351C11.4261 12.1499 10.7282 12.4396 10.0001 12.4406Z" fill="white"/>
<path d="M10 4.30406C8.95848 4.30197 7.9387 4.60217 7.06441 5.16824C6.19011 5.73432 5.49887 6.54194 5.07453 7.49313C4.6502 8.44433 4.51101 9.49822 4.67385 10.527C4.83668 11.5557 5.29455 12.5151 5.9919 13.2887C6.01909 13.3204 6.05235 13.3463 6.0897 13.3649C6.12705 13.3834 6.16775 13.3944 6.20939 13.397C6.25103 13.3996 6.29278 13.3938 6.33216 13.38C6.37154 13.3663 6.40776 13.3447 6.43869 13.3167C6.46961 13.2887 6.49462 13.2548 6.51223 13.217C6.52984 13.1792 6.5397 13.1382 6.54122 13.0965C6.54274 13.0548 6.5359 13.0132 6.5211 12.9742C6.5063 12.9352 6.48383 12.8996 6.45503 12.8694C5.83917 12.1845 5.43496 11.3358 5.29131 10.4261C5.14767 9.51628 5.27074 8.58437 5.64563 7.74307C6.02052 6.90177 6.63118 6.18713 7.40372 5.68561C8.17626 5.18409 9.07757 4.91719 9.99862 4.91719C10.9197 4.91719 11.821 5.18409 12.5935 5.68561C13.3661 6.18713 13.9767 6.90177 14.3516 7.74307C14.7265 8.58437 14.8496 9.51628 14.7059 10.4261C14.5623 11.3358 14.1581 12.1845 13.5422 12.8694C13.5134 12.8996 13.4909 12.9352 13.4761 12.9742C13.4613 13.0132 13.4545 13.0548 13.456 13.0965C13.4575 13.1382 13.4674 13.1792 13.485 13.217C13.5026 13.2548 13.5276 13.2887 13.5586 13.3167C13.5895 13.3447 13.6257 13.3663 13.6651 13.38C13.7045 13.3938 13.7462 13.3996 13.7879 13.397C13.8295 13.3944 13.8702 13.3834 13.9075 13.3649C13.9449 13.3463 13.9782 13.3204 14.0053 13.2887C14.7024 12.5152 15.1601 11.5561 15.3229 10.5277C15.4858 9.49924 15.3468 8.44564 14.9229 7.49461C14.4989 6.54357 13.8082 5.73595 12.9344 5.16964C12.0606 4.60333 11.0413 4.30265 10 4.30406Z" fill="white"/>
<path d="M1.24442 11.5159H2.50349C2.64688 12.1093 2.86233 12.683 3.14505 13.2241C3.18351 13.2975 3.24956 13.3526 3.32867 13.3774C3.40779 13.4021 3.49349 13.3944 3.56692 13.3559C3.64036 13.3175 3.6955 13.2514 3.72023 13.1723C3.74497 13.0932 3.73726 13.0075 3.6988 12.9341C3.40335 12.3687 3.18815 11.7648 3.05942 11.14C3.04503 11.0695 3.00672 11.0061 2.95098 10.9605C2.89523 10.915 2.82547 10.8901 2.75349 10.89H1.55692V8.49531H2.75349C2.82547 8.49525 2.89523 8.47035 2.95098 8.4248C3.00672 8.37924 3.04503 8.31585 3.05942 8.24531C3.23944 7.37772 3.58249 6.55217 4.07036 5.8125C4.10992 5.75242 4.12755 5.68054 4.12026 5.60898C4.11297 5.53741 4.08122 5.47056 4.03036 5.41969L3.18161 4.57094L4.87505 2.87781L5.72349 3.72656C5.77432 3.77747 5.84116 3.80928 5.91272 3.81662C5.98428 3.82397 6.05619 3.8064 6.1163 3.76688C6.85624 3.27881 7.68211 2.93565 8.55005 2.75563C8.62058 2.74123 8.68398 2.70292 8.72953 2.64718C8.77508 2.59143 8.79999 2.52167 8.80005 2.44969V1.25H11.196V2.44969C11.196 2.52167 11.221 2.59143 11.2665 2.64718C11.3121 2.70292 11.3755 2.74123 11.446 2.75563C12.3151 2.93548 13.1423 3.27863 13.8835 3.76688C13.9436 3.8064 14.0155 3.82397 14.0871 3.81662C14.1586 3.80928 14.2255 3.77747 14.2763 3.72656L15.125 2.87781L16.8194 4.57219L15.9707 5.42094C15.9198 5.47177 15.888 5.53861 15.8806 5.61017C15.8733 5.68173 15.8908 5.75364 15.9304 5.81375C16.417 6.55356 16.7589 7.37899 16.9379 8.24625C16.9523 8.31684 16.9906 8.38027 17.0464 8.42583C17.1022 8.47139 17.1721 8.49626 17.2441 8.49625H18.4438V10.8919H17.2404C17.1683 10.8919 17.0985 10.9167 17.0427 10.9623C16.9869 11.0078 16.9485 11.0713 16.9341 11.1419C16.8047 11.7665 16.5905 12.3706 16.2975 12.9372C16.2787 12.9736 16.2672 13.0134 16.2637 13.0543C16.2602 13.0952 16.2648 13.1364 16.2772 13.1755C16.2896 13.2146 16.3096 13.2509 16.336 13.2823C16.3625 13.3137 16.3949 13.3396 16.4313 13.3584C16.4677 13.3773 16.5075 13.3888 16.5484 13.3923C16.5893 13.3958 16.6305 13.3912 16.6696 13.3788C16.7087 13.3664 16.745 13.3464 16.7764 13.3199C16.8078 13.2935 16.8337 13.2611 16.8525 13.2247C17.1327 12.6833 17.3468 12.1102 17.4904 11.5178H18.7525C18.8354 11.5178 18.9149 11.4849 18.9735 11.4263C19.0321 11.3677 19.065 11.2882 19.065 11.2053V8.18281C19.065 8.09993 19.0321 8.02045 18.9735 7.96184C18.9149 7.90324 18.8354 7.87031 18.7525 7.87031H17.4904C17.3037 7.09949 16.998 6.3625 16.5841 5.68594L17.4769 4.79313C17.5355 4.73452 17.5684 4.65505 17.5684 4.57219C17.5684 4.48932 17.5355 4.40985 17.4769 4.35125L15.3438 2.215C15.2841 2.15854 15.205 2.12708 15.1229 2.12708C15.0407 2.12708 14.9616 2.15854 14.9019 2.215L14.0075 3.10781C13.3301 2.69311 12.592 2.38671 11.82 2.19969V0.9375C11.82 0.85462 11.7871 0.775134 11.7285 0.716529C11.6699 0.657924 11.5904 0.625 11.5075 0.625H8.4863C8.40342 0.625 8.32393 0.657924 8.26533 0.716529C8.20672 0.775134 8.1738 0.85462 8.1738 0.9375V2.2C7.40288 2.38713 6.66589 2.69342 5.98942 3.10781L5.09692 2.215C5.03832 2.15642 4.95885 2.1235 4.87599 2.1235C4.79312 2.1235 4.71365 2.15642 4.65505 2.215L2.5188 4.35125C2.46021 4.40985 2.4273 4.48932 2.4273 4.57219C2.4273 4.65505 2.46021 4.73452 2.5188 4.79313L3.41161 5.6875C2.99689 6.36384 2.69049 7.10087 2.50349 7.87188H1.24442C1.16154 7.87188 1.08206 7.9048 1.02345 7.9634C0.964848 8.02201 0.931924 8.10149 0.931924 8.18438V11.205C0.932337 11.2876 0.965443 11.3667 1.024 11.425C1.08256 11.4832 1.16181 11.5159 1.24442 11.5159ZM5.9138 18.73V14.8125C5.91363 14.6415 5.84563 14.4775 5.7247 14.3566C5.60378 14.2357 5.43981 14.1677 5.2688 14.1675H1.43755C1.26648 14.1676 1.10244 14.2356 0.981446 14.3565C0.860453 14.4774 0.792402 14.6414 0.792236 14.8125V18.73C0.792402 18.9011 0.860453 19.0651 0.981446 19.186C1.10244 19.3069 1.26648 19.3749 1.43755 19.375H5.2688C5.43981 19.3748 5.60378 19.3068 5.7247 19.1859C5.84563 19.065 5.91363 18.901 5.9138 18.73ZM1.41724 18.73L1.43724 14.7925L5.2888 14.8125V18.73C5.2888 18.7353 5.28669 18.7404 5.28294 18.7441C5.27919 18.7479 5.2741 18.75 5.2688 18.75L1.41724 18.73Z" fill="white"/>
<path d="M4.47783 15.665C4.40875 15.6192 4.32431 15.6027 4.24308 15.6192C4.16186 15.6357 4.0905 15.6837 4.04471 15.7528L3.26564 16.9272L2.62814 16.25C2.60014 16.2196 2.56637 16.195 2.5288 16.1777C2.49122 16.1604 2.45059 16.1508 2.40926 16.1493C2.36793 16.1478 2.32672 16.1546 2.28802 16.1692C2.24932 16.1837 2.21389 16.2059 2.1838 16.2342C2.15371 16.2626 2.12955 16.2967 2.11273 16.3345C2.0959 16.3722 2.08674 16.413 2.08578 16.4543C2.08482 16.4957 2.09207 16.5368 2.10712 16.5753C2.12217 16.6138 2.14472 16.649 2.17346 16.6787L3.07971 17.6419C3.10893 17.6729 3.14419 17.6976 3.18332 17.7144C3.22244 17.7313 3.2646 17.74 3.30721 17.74C3.31605 17.7405 3.32492 17.7405 3.33377 17.74C3.38066 17.736 3.42604 17.7214 3.46652 17.6974C3.507 17.6733 3.54152 17.6405 3.56752 17.6012L4.56408 16.0984C4.61012 16.0295 4.6269 15.9451 4.61072 15.8638C4.59455 15.7826 4.54674 15.711 4.47783 15.665ZM11.916 14.1684H8.08408C7.91328 14.1687 7.74954 14.2366 7.62871 14.3573C7.50788 14.478 7.43981 14.6417 7.43939 14.8125V18.73C7.43956 18.9009 7.50752 19.0649 7.62838 19.1858C7.74924 19.3067 7.91312 19.3747 8.08408 19.375H11.916C12.0869 19.3747 12.2508 19.3067 12.3717 19.1858C12.4925 19.0649 12.5605 18.9009 12.5606 18.73V14.8125C12.5602 14.6417 12.4922 14.478 12.3713 14.3573C12.2505 14.2366 12.0868 14.1687 11.916 14.1684ZM11.9356 18.7309C11.9356 18.7362 11.9336 18.7412 11.9299 18.745C11.9262 18.7487 11.9212 18.7508 11.916 18.7509L8.06439 18.7309L8.08408 14.7934L11.9356 14.8134V18.7309Z" fill="white"/>
<path d="M9.72817 17.6428C9.75736 17.6738 9.79257 17.6984 9.83164 17.7153C9.87071 17.7322 9.91281 17.7409 9.95536 17.7409C9.96421 17.7414 9.97307 17.7414 9.98192 17.7409C10.0288 17.7369 10.0742 17.7223 10.1147 17.6983C10.1552 17.6743 10.1897 17.6414 10.2157 17.6022L11.2125 16.0994C11.2367 16.0652 11.2537 16.0266 11.2626 15.9857C11.2715 15.9449 11.2721 15.9027 11.2644 15.8616C11.2567 15.8205 11.2409 15.7813 11.2178 15.7465C11.1947 15.7116 11.1649 15.6818 11.13 15.6587C11.0952 15.6356 11.0561 15.6197 11.015 15.612C10.9739 15.6042 10.9317 15.6049 10.8908 15.6137C10.85 15.6226 10.8113 15.6396 10.7771 15.6637C10.743 15.6878 10.714 15.7185 10.6919 15.7541L9.91286 16.9284L9.27536 16.25C9.24735 16.2196 9.21359 16.195 9.17601 16.1777C9.13844 16.1604 9.09781 16.1508 9.05648 16.1493C9.01515 16.1478 8.97394 16.1546 8.93523 16.1692C8.89653 16.1837 8.86111 16.2059 8.83102 16.2342C8.80093 16.2626 8.77677 16.2967 8.75994 16.3345C8.74312 16.3722 8.73396 16.413 8.73299 16.4543C8.73203 16.4957 8.73929 16.5368 8.75434 16.5753C8.76939 16.6138 8.79194 16.649 8.82067 16.6787L9.72817 17.6428ZM18.5625 14.1684H14.7313C14.5604 14.1686 14.3966 14.2365 14.2757 14.3572C14.1548 14.4779 14.0867 14.6416 14.0863 14.8125V18.73C14.0865 18.901 14.1545 19.065 14.2754 19.1859C14.3963 19.3068 14.5603 19.3748 14.7313 19.375H18.5625C18.7336 19.3748 18.8975 19.3068 19.0184 19.1859C19.1394 19.065 19.2074 18.901 19.2075 18.73V14.8125C19.2071 14.6416 19.139 14.4779 19.0181 14.3572C18.8972 14.2365 18.7334 14.1686 18.5625 14.1684ZM18.5825 18.7309C18.5824 18.7361 18.5802 18.741 18.5765 18.7446C18.5727 18.7481 18.5677 18.7501 18.5625 18.75L14.711 18.73L14.731 14.7925L18.5825 14.8125V18.7309Z" fill="white"/>
<path d="M16.375 17.6428C16.4043 17.6738 16.4395 17.6985 16.4786 17.7154C16.5178 17.7323 16.5599 17.7409 16.6025 17.7409C16.6114 17.7414 16.6202 17.7414 16.6291 17.7409C16.676 17.7369 16.7214 17.7223 16.7618 17.6983C16.8023 17.6743 16.8368 17.6414 16.8628 17.6022L17.8591 16.0994C17.8832 16.0652 17.9002 16.0266 17.9091 15.9857C17.9181 15.9449 17.9187 15.9027 17.911 15.8616C17.9033 15.8205 17.8874 15.7813 17.8643 15.7465C17.8412 15.7116 17.8114 15.6818 17.7766 15.6587C17.7417 15.6356 17.7026 15.6197 17.6615 15.612C17.6204 15.6043 17.5782 15.6049 17.5373 15.6138C17.4965 15.6226 17.4578 15.6396 17.4237 15.6637C17.3895 15.6878 17.3605 15.7186 17.3385 15.7541L16.5597 16.9284L15.9222 16.25C15.8944 16.2187 15.8606 16.1933 15.8227 16.1754C15.7849 16.1574 15.7439 16.1473 15.702 16.1455C15.6602 16.1437 15.6185 16.1503 15.5792 16.165C15.54 16.1797 15.5042 16.2021 15.4738 16.2309C15.4434 16.2597 15.4191 16.2943 15.4023 16.3326C15.3856 16.371 15.3767 16.4123 15.3762 16.4542C15.3758 16.4961 15.3837 16.5376 15.3996 16.5763C15.4155 16.6151 15.439 16.6502 15.4688 16.6797L16.375 17.6428Z" fill="white"/>
</g>
<defs>
<clipPath id="clip0_398_7661">
<rect width="20" height="20" fill="white"/>
</clipPath>
</defs>
</svg>
