<svg width="20" height="20" viewBox="0 0 20 20" fill="none" xmlns="http://www.w3.org/2000/svg">
<g clip-path="url(#clip0_398_7674)">
<path d="M19.4873 8.43961L18.0858 7.9002C17.892 7.15178 17.5945 6.43413 17.202 5.76809L17.8119 4.39484C17.8375 4.33713 17.8451 4.273 17.8335 4.21092C17.822 4.14883 17.7919 4.09169 17.7473 4.04703L15.953 2.25273C15.9083 2.20808 15.8512 2.17799 15.7891 2.16645C15.727 2.15491 15.6629 2.16246 15.6052 2.18809L14.2314 2.79824C13.5655 2.40587 12.8481 2.10843 12.1 1.91453L11.5604 0.512734C11.5377 0.453799 11.4977 0.403124 11.4456 0.367382C11.3935 0.331639 11.3319 0.312505 11.2687 0.3125H8.73125C8.6681 0.312499 8.60643 0.331632 8.55437 0.367376C8.50231 0.403121 8.4623 0.453799 8.43961 0.512734L7.9 1.91457C7.15184 2.10842 6.43443 2.40587 5.76859 2.79828L4.39484 2.18812C4.33713 2.16249 4.273 2.15495 4.21091 2.16649C4.14882 2.17803 4.09168 2.20812 4.04703 2.25277L2.25273 4.04707C2.20808 4.09173 2.17801 4.14887 2.16648 4.21095C2.15494 4.27304 2.16249 4.33717 2.18812 4.39488L2.79816 5.76848C2.40574 6.43439 2.1083 7.15188 1.91445 7.90012L0.512734 8.43965C0.453799 8.46234 0.403121 8.50235 0.367376 8.55441C0.331632 8.60647 0.312499 8.66814 0.3125 8.73129V11.2688C0.312499 11.3319 0.331632 11.3936 0.367376 11.4457C0.403121 11.4977 0.453799 11.5377 0.512734 11.5604L1.91422 12.0998C2.10806 12.8483 2.40554 13.5659 2.79805 14.232L2.18812 15.6052C2.16249 15.6629 2.15494 15.727 2.16648 15.7891C2.17801 15.8512 2.20808 15.9084 2.25273 15.953L4.04707 17.7473C4.09172 17.792 4.14886 17.822 4.21095 17.8336C4.27304 17.8451 4.33717 17.8376 4.39488 17.812L5.76863 17.2018C6.43448 17.5942 7.15188 17.8916 7.90004 18.0855L8.43961 19.4873C8.46229 19.5462 8.50229 19.5969 8.55436 19.6327C8.60642 19.6684 8.6681 19.6876 8.73125 19.6875H11.2688C11.3319 19.6875 11.3936 19.6684 11.4456 19.6327C11.4977 19.5969 11.5377 19.5462 11.5604 19.4873L12.0998 18.0859C12.8483 17.8921 13.5659 17.5946 14.232 17.2021L15.6052 17.812C15.6629 17.8376 15.727 17.8452 15.7891 17.8337C15.8512 17.8221 15.9083 17.792 15.953 17.7474L17.7473 15.953C17.7919 15.9084 17.822 15.8513 17.8335 15.7892C17.8451 15.7271 17.8375 15.6629 17.8119 15.6052L17.2018 14.2315C17.5941 13.5657 17.8916 12.8482 18.0854 12.1001L19.4873 11.5605C19.5462 11.5378 19.5969 11.4978 19.6326 11.4457C19.6684 11.3937 19.6875 11.332 19.6875 11.2689V8.73137C19.6875 8.6682 19.6684 8.6065 19.6327 8.55442C19.5969 8.50233 19.5462 8.4623 19.4873 8.43961ZM19.0625 11.0542L17.7091 11.5751C17.6618 11.5933 17.6196 11.6228 17.5861 11.661C17.5527 11.6992 17.5292 11.745 17.5174 11.7944C17.3282 12.5897 17.013 13.3498 16.584 14.0457C16.5574 14.0889 16.5417 14.138 16.5383 14.1886C16.5349 14.2393 16.5439 14.29 16.5645 14.3364L17.1536 15.6627L15.6627 17.1536L14.3369 16.5647C14.2905 16.5441 14.2398 16.5351 14.1891 16.5385C14.1385 16.5419 14.0894 16.5576 14.0462 16.5843C13.3501 17.0134 12.5899 17.3286 11.7943 17.5178C11.7449 17.5295 11.6991 17.5531 11.6609 17.5865C11.6227 17.6199 11.5932 17.6622 11.575 17.7095L11.0542 19.0625H8.94582L8.42488 17.7092C8.40665 17.6618 8.37716 17.6196 8.33896 17.5862C8.30076 17.5528 8.255 17.5292 8.20562 17.5174C7.41026 17.3282 6.65023 17.0131 5.95426 16.5841C5.91103 16.5575 5.86198 16.5418 5.81134 16.5384C5.7607 16.535 5.70999 16.5439 5.66359 16.5645L4.33727 17.1536L2.84641 15.6627L3.43527 14.3369C3.45587 14.2905 3.46486 14.2398 3.46146 14.1891C3.45805 14.1385 3.44236 14.0894 3.41574 14.0462C2.9866 13.3501 2.67145 12.5899 2.48223 11.7943C2.47049 11.7449 2.44689 11.6991 2.41349 11.6609C2.38008 11.6227 2.33787 11.5932 2.29051 11.575L0.9375 11.0542V8.94582L2.29074 8.42496C2.33811 8.40674 2.38033 8.37724 2.41373 8.33903C2.44714 8.30082 2.47073 8.25504 2.48246 8.20566C2.67172 7.41025 2.98684 6.65018 3.4159 5.95418C3.44252 5.91095 3.45821 5.86189 3.46161 5.81124C3.46501 5.76059 3.45603 5.70988 3.43543 5.66348L2.84645 4.33731L4.33727 2.84641L5.66359 3.43547C5.70999 3.45606 5.7607 3.46505 5.81134 3.46165C5.86198 3.45824 5.91104 3.44255 5.95426 3.41594C6.65024 2.98694 7.41026 2.67185 8.20562 2.48258C8.255 2.47082 8.30076 2.44722 8.33896 2.41381C8.37716 2.3804 8.40665 2.33818 8.42488 2.29082L8.94586 0.9375H11.0542L11.5751 2.29082C11.5933 2.33818 11.6228 2.3804 11.661 2.41381C11.6992 2.44722 11.745 2.47082 11.7944 2.48258C12.5897 2.67185 13.3498 2.98694 14.0457 3.41594C14.089 3.44254 14.138 3.45823 14.1887 3.46163C14.2393 3.46503 14.29 3.45605 14.3364 3.43547L15.6627 2.84641L17.1536 4.33727L16.5647 5.66309C16.5441 5.70948 16.5351 5.7602 16.5385 5.81085C16.5419 5.8615 16.5576 5.91056 16.5843 5.95379C17.0134 6.64989 17.3286 7.41012 17.5178 8.2057C17.5295 8.25508 17.5531 8.30086 17.5865 8.33907C17.6199 8.37728 17.6621 8.40677 17.7095 8.425L19.0625 8.94578V11.0542ZM15.3363 6.8977C15.8829 7.83586 16.1719 8.90863 16.1719 10C16.1719 13.4032 13.4032 16.1719 10 16.1719C8.79844 16.1719 7.62445 15.8191 6.62648 15.168L6.66301 15.296C6.68428 15.3752 6.67354 15.4596 6.63311 15.531C6.59268 15.6024 6.5258 15.655 6.44691 15.6776C6.36802 15.7001 6.28343 15.6906 6.21142 15.6513C6.13941 15.612 6.08574 15.546 6.06199 15.4675L5.76539 14.428C5.75236 14.3824 5.74989 14.3344 5.75815 14.2877C5.76641 14.241 5.7852 14.1968 5.81308 14.1585C5.84096 14.1201 5.87721 14.0886 5.91908 14.0663C5.96095 14.044 6.00734 14.0316 6.05473 14.0299L7.135 13.9911C7.30809 13.9842 7.45234 14.1197 7.45852 14.2922C7.45999 14.3332 7.45337 14.3741 7.43903 14.4126C7.4247 14.451 7.40293 14.4863 7.37497 14.5163C7.34701 14.5463 7.31341 14.5706 7.27608 14.5876C7.23876 14.6047 7.19843 14.6142 7.15742 14.6157L6.93578 14.6237C7.83945 15.2223 8.90707 15.5469 10 15.5469C13.0586 15.5469 15.5469 13.0586 15.5469 10C15.5469 9.01906 15.2873 8.05512 14.7962 7.21234C14.7756 7.17688 14.7621 7.1377 14.7566 7.09704C14.7511 7.05637 14.7536 7.01501 14.7641 6.97533C14.7746 6.93565 14.7927 6.89842 14.8176 6.86576C14.8424 6.8331 14.8735 6.80566 14.9089 6.785C14.9444 6.76434 14.9836 6.75087 15.0242 6.74535C15.0649 6.73983 15.1063 6.74238 15.1459 6.75284C15.1856 6.76331 15.2228 6.78149 15.2555 6.80634C15.2882 6.83119 15.3156 6.86224 15.3363 6.8977ZM4.45312 10C4.45312 10.9812 4.7127 11.9453 5.20375 12.7881C5.22442 12.8235 5.23789 12.8627 5.24341 12.9034C5.24893 12.944 5.24639 12.9854 5.23592 13.0251C5.22546 13.0648 5.20728 13.102 5.18242 13.1346C5.15756 13.1673 5.12652 13.1947 5.09105 13.2154C5.0556 13.2361 5.01642 13.2496 4.97575 13.2551C4.93508 13.2606 4.89371 13.2581 4.85403 13.2476C4.81434 13.2371 4.7771 13.219 4.74444 13.1941C4.71179 13.1692 4.68436 13.1382 4.66371 13.1027C4.11707 12.1645 3.82812 11.0916 3.82812 10C3.82812 6.5968 6.59684 3.82812 10 3.82812C11.2016 3.82812 12.3756 4.18105 13.3736 4.83234L13.337 4.70395C13.3257 4.66448 13.3224 4.62318 13.3271 4.58241C13.3318 4.54164 13.3444 4.5022 13.3644 4.46633C13.3843 4.43046 13.4112 4.39888 13.4433 4.37337C13.4755 4.34787 13.5123 4.32895 13.5518 4.3177C13.7177 4.27027 13.8907 4.36652 13.938 4.53246L14.2346 5.57195C14.2476 5.61755 14.2501 5.66551 14.2418 5.71221C14.2336 5.75891 14.2148 5.80311 14.1869 5.84147C14.159 5.87983 14.1228 5.91133 14.0809 5.9336C14.0391 5.95587 13.9927 5.96832 13.9453 5.97L12.865 6.00883C12.824 6.0103 12.7831 6.00368 12.7447 5.98935C12.7062 5.97501 12.671 5.95324 12.6409 5.92528C12.6109 5.89732 12.5866 5.86372 12.5696 5.82639C12.5525 5.78907 12.543 5.74875 12.5415 5.70773C12.5401 5.66672 12.5467 5.62582 12.561 5.58737C12.5753 5.54891 12.5971 5.51366 12.6251 5.48362C12.653 5.45358 12.6866 5.42934 12.724 5.41228C12.7613 5.39523 12.8016 5.38569 12.8426 5.38422L13.0638 5.37629C12.1602 4.77766 11.0927 4.45312 10 4.45312C6.94145 4.45312 4.45312 6.94145 4.45312 10ZM8.76785 13.6182H9.02207C9.10495 13.6182 9.18444 13.5852 9.24304 13.5266C9.30165 13.468 9.33457 13.3885 9.33457 13.3057L9.33461 11.2779C10.3284 11.5205 11.205 12.0394 12.0861 12.5975C12.2041 12.6722 12.3355 12.7098 12.4674 12.7098C12.5851 12.7098 12.7031 12.6799 12.8122 12.6198C13.0437 12.4925 13.1819 12.2587 13.1819 11.9945V10.6477C13.6525 10.5257 14.0011 10.0973 14.0011 9.58906C14.0011 9.08102 13.6528 8.65281 13.1819 8.53059V7.09723C13.1819 6.84082 13.0498 6.61047 12.8285 6.48105C12.6071 6.3516 12.3417 6.34934 12.1182 6.475C11.9671 6.56034 11.8165 6.64655 11.6664 6.73363C10.8514 7.20426 9.92879 7.73703 8.98981 7.93754H7.63324C6.73211 7.93754 5.99895 8.67066 5.99895 9.5718C5.99895 10.4729 6.73211 11.2061 7.63324 11.2061H7.72902V12.5793C7.72898 13.1521 8.19504 13.6182 8.76785 13.6182ZM13.3761 9.58906C13.3761 9.745 13.2992 9.88301 13.1819 9.9682V9.21008C13.2993 9.29531 13.3761 9.43324 13.3761 9.58906ZM8.35398 12.5793V11.2061H8.70961L8.70957 12.9891C8.50887 12.9606 8.35398 12.7877 8.35398 12.5793ZM11.4777 11.5C10.8146 11.127 10.108 10.8043 9.33461 10.6359L9.33465 8.49723C10.0937 8.30039 10.8143 7.93457 11.4777 7.5616V11.5ZM12.4245 7.01977C12.4556 7.00227 12.482 7.0025 12.5129 7.02059C12.5437 7.03859 12.5569 7.06152 12.5569 7.09723V11.9945C12.5569 12.0308 12.5427 12.0548 12.5108 12.0723C12.4789 12.0898 12.4511 12.0889 12.4205 12.0695C12.3149 12.0026 12.209 11.9362 12.1027 11.8705V7.20344C12.2096 7.14165 12.3169 7.08043 12.4245 7.01977ZM6.62391 9.5718C6.62391 9.01527 7.07668 8.56254 7.6332 8.56254H8.70965L8.70961 10.5811H7.6332C7.07668 10.5811 6.62391 10.1283 6.62391 9.5718Z" fill="white"/>
</g>
<defs>
<clipPath id="clip0_398_7674">
<rect width="20" height="20" fill="white"/>
</clipPath>
</defs>
</svg>
