<svg width="20" height="20" viewBox="0 0 20 20" fill="none" xmlns="http://www.w3.org/2000/svg">
<path d="M3.33333 11.0417C3.16757 11.0417 3.0086 11.1075 2.89139 11.2247C2.77418 11.3419 2.70833 11.5009 2.70833 11.6667V17.0833C2.70899 17.5804 2.90675 18.0569 3.25823 18.4084C3.60972 18.7599 4.08625 18.9577 4.58333 18.9583H15.4167C15.9137 18.9577 16.3903 18.7599 16.7418 18.4084C17.0932 18.0569 17.291 17.5804 17.2917 17.0833V11.6667C17.2917 11.5009 17.2258 11.3419 17.1086 11.2247C16.9914 11.1075 16.8324 11.0417 16.6667 11.0417C16.5009 11.0417 16.3419 11.1075 16.2247 11.2247C16.1075 11.3419 16.0417 11.5009 16.0417 11.6667V17.0833C16.0414 17.249 15.9755 17.4079 15.8584 17.525C15.7412 17.6422 15.5824 17.7081 15.4167 17.7083H4.58333C4.41763 17.7081 4.25879 17.6422 4.14163 17.525C4.02447 17.4079 3.95855 17.249 3.95833 17.0833V11.6667C3.95833 11.5009 3.89248 11.3419 3.77527 11.2247C3.65806 11.1075 3.49909 11.0417 3.33333 11.0417ZM11.325 1.59166C10.9731 1.24115 10.4967 1.04434 9.99999 1.04434C9.50332 1.04434 9.02688 1.24115 8.67499 1.59166L1.22499 9.04083C1.11459 9.15931 1.05449 9.31601 1.05735 9.47793C1.06021 9.63985 1.1258 9.79434 1.24031 9.90885C1.35482 10.0234 1.50931 10.089 1.67123 10.0918C1.83314 10.0947 1.98985 10.0346 2.10833 9.92416L9.55833 2.47499C9.67736 2.36149 9.83552 2.29817 9.99999 2.29817C10.1645 2.29817 10.3226 2.36149 10.4417 2.47499L17.8917 9.925C18.0096 10.0388 18.1675 10.1017 18.3314 10.1002C18.4952 10.0987 18.652 10.0329 18.7678 9.91697C18.8836 9.80104 18.9493 9.64425 18.9506 9.48037C18.952 9.3165 18.8889 9.15865 18.775 9.04083L11.325 1.59166Z" fill="white"/>
</svg>
