<svg width="20" height="20" viewBox="0 0 20 20" fill="none" xmlns="http://www.w3.org/2000/svg">
<g clip-path="url(#clip0_1140_8330)">
<path d="M4.07496 13.2947C6.04761 15.6527 8.42224 17.5093 11.1326 18.823C12.1645 19.3121 13.5445 19.8923 15.082 19.9917C15.1773 19.9959 15.2685 20 15.3638 20C16.3957 20 17.2246 19.6436 17.9001 18.9101C17.9042 18.9059 17.9125 18.8976 17.9166 18.8893C18.157 18.5993 18.4305 18.3382 18.7165 18.0605C18.9113 17.874 19.1102 17.6792 19.3008 17.4803C20.1835 16.5603 20.1835 15.3916 19.2925 14.5006L16.8019 12.0099C16.3791 11.5707 15.8735 11.3386 15.3431 11.3386C14.8126 11.3386 14.3029 11.5707 13.8677 12.0058L12.3841 13.4894C12.2474 13.4107 12.1065 13.3402 11.9738 13.2739C11.8081 13.191 11.6547 13.1123 11.518 13.0253C10.167 12.1674 8.94027 11.0485 7.76746 9.61044C7.17483 8.86034 6.77699 8.23042 6.49933 7.58807C6.88888 7.23581 7.25357 6.86697 7.60583 6.50642C7.73016 6.37795 7.85863 6.24948 7.9871 6.12101C8.43468 5.67344 8.67504 5.15541 8.67504 4.62909C8.67504 4.10278 8.43882 3.58475 7.9871 3.13717L6.75212 1.9022C6.60708 1.75715 6.47032 1.61625 6.32941 1.4712C6.05589 1.18939 5.76994 0.899296 5.48814 0.63821C5.06128 0.219644 4.55983 0 4.02937 0C3.50306 0 2.99746 0.219644 2.55403 0.642354L1.00409 2.19229C0.440478 2.75591 0.121373 3.4397 0.0550655 4.23125C-0.0236746 5.22172 0.158671 6.27435 0.631112 7.54662C1.35635 9.51513 2.45042 11.3427 4.07496 13.2947ZM1.06625 4.31828C1.11599 3.76709 1.32734 3.30709 1.72519 2.90924L3.26683 1.36759C3.5072 1.13552 3.77243 1.01533 4.02937 1.01533C4.28217 1.01533 4.53911 1.13552 4.77533 1.37588C5.05299 1.63282 5.31408 1.9022 5.59589 2.18815C5.73679 2.3332 5.88184 2.47824 6.02688 2.62743L7.26186 3.86241C7.5188 4.11935 7.65142 4.38044 7.65142 4.63738C7.65142 4.89432 7.5188 5.15541 7.26186 5.41235C7.13339 5.54082 7.00492 5.67344 6.87645 5.80191C6.49104 6.19146 6.13049 6.5603 5.73265 6.91256L5.71192 6.93328C5.36795 7.27725 5.42183 7.60464 5.50471 7.85329C5.50886 7.86573 5.513 7.87402 5.51715 7.88645C5.83625 8.65313 6.27968 9.38251 6.97177 10.2528C8.21503 11.7862 9.5246 12.9755 10.9668 13.8914C11.145 14.0075 11.3356 14.0986 11.5138 14.1898C11.6796 14.2727 11.8329 14.3514 11.9697 14.4385C11.9863 14.4467 11.9987 14.455 12.0153 14.4633C12.152 14.5338 12.2847 14.5669 12.4173 14.5669C12.7488 14.5669 12.9643 14.3556 13.0348 14.2851L14.5847 12.7352C14.8251 12.4948 15.0861 12.3663 15.3431 12.3663C15.658 12.3663 15.915 12.5611 16.0766 12.7352L18.5756 15.23C19.0729 15.7273 19.0687 16.2661 18.5631 16.7924C18.3891 16.9789 18.2067 17.1571 18.012 17.3436C17.7219 17.6254 17.4193 17.9155 17.1458 18.2429C16.6692 18.7567 16.1015 18.9971 15.368 18.9971C15.2975 18.9971 15.2229 18.993 15.1525 18.9888C13.7931 18.9018 12.5292 18.3713 11.5801 17.9196C9.00243 16.6722 6.73969 14.9026 4.86236 12.6564C3.31657 10.7957 2.27637 9.06341 1.58843 7.2068C1.16157 6.06714 0.999947 5.15126 1.06625 4.31828Z" fill="white"/>
</g>
<defs>
<clipPath id="clip0_1140_8330">
<rect width="20" height="20" fill="white"/>
</clipPath>
</defs>
</svg>
