<svg width="20" height="20" viewBox="0 0 20 20" fill="none" xmlns="http://www.w3.org/2000/svg">
<path d="M18.95 10.1428L17.4553 7.65156C17.4053 7.58187 17.3384 7.52719 17.2537 7.50719L13.1865 6.62281C13.3425 6.24562 13.4375 5.8375 13.4375 5.39906V3.58187C13.4375 3.26156 13.2 2.99469 12.8843 2.96125C12.4746 2.9175 11.3959 2.67437 10.2356 1.35594C10.1168 1.21562 9.88276 1.21562 9.76433 1.35594C8.60401 2.67437 7.52526 2.91781 7.11558 2.96125C6.96291 2.97788 6.82184 3.05055 6.71967 3.16519C6.61749 3.27984 6.56147 3.42831 6.56245 3.58187V5.39906C6.56245 5.8375 6.65776 6.24562 6.81339 6.62281L2.7462 7.50719C2.66183 7.52687 2.59464 7.58219 2.54464 7.65156L1.04995 10.1428C0.74839 10.6184 0.982765 11.3056 1.51245 11.4978L2.49995 11.8844V15.1984C2.49995 15.5869 2.7337 15.9297 3.09589 16.0716L9.8862 18.7284C9.95933 18.7571 10.0406 18.7571 10.1137 18.7284L16.9043 16.0716C17.0803 16.0034 17.2315 15.8835 17.3378 15.7276C17.4442 15.5717 17.5007 15.3872 17.5 15.1984V11.8844L18.4875 11.4978C19.0171 11.3056 19.2515 10.6184 18.95 10.1428ZM9.99995 2.02281C11.1709 3.2375 12.2559 3.52281 12.8125 3.58187V5.39906C12.8125 7.28437 10.5803 8.62531 9.99995 8.94219C9.41964 8.62531 7.18745 7.28437 7.18745 5.39906L7.1812 3.58281C7.7437 3.52312 8.82901 3.2375 9.99995 2.02281ZM7.10933 7.19812C8.02183 8.66656 9.76464 9.52812 9.8637 9.57625C9.90616 9.59689 9.95275 9.60762 9.99995 9.60762C10.0472 9.60762 10.0937 9.59689 10.1362 9.57625C10.2353 9.52812 11.9784 8.66656 12.8903 7.19812L16.1109 7.89812L9.99995 10.2894L3.88901 7.89812L7.10933 7.19812ZM1.74026 10.9159C1.56401 10.8525 1.48495 10.6228 1.5862 10.4641L2.94495 8.19969L9.54183 10.7812L8.12933 13.1362C8.09138 13.1997 8.03213 13.2476 7.96214 13.2715C7.89215 13.2954 7.81596 13.2936 7.74714 13.2666L1.74026 10.9159ZM9.68745 17.9797L3.3237 15.4894C3.26503 15.4667 3.21463 15.4267 3.17914 15.3748C3.14366 15.3228 3.12476 15.2613 3.12495 15.1984V12.1291L7.51933 13.8484C7.93808 14.0147 8.42808 13.8547 8.66464 13.4578L9.68745 11.7531V17.9797ZM16.875 15.1984C16.875 15.3278 16.7968 15.4422 16.6765 15.4894L10.3125 17.9797V11.7531L11.3353 13.4578C11.4491 13.6479 11.6266 13.7915 11.8363 13.863C12.046 13.9345 12.2743 13.9294 12.4806 13.8484L16.875 12.1291V15.1984ZM18.26 10.9159L12.2531 13.2666C12.1843 13.2935 12.1082 13.2952 12.0383 13.2714C11.9683 13.2475 11.9091 13.1996 11.8712 13.1362L10.4581 10.7812L17.0553 8.2L18.414 10.4641C18.5153 10.6228 18.4359 10.8525 18.26 10.9159ZM8.58745 5.95844C8.52865 5.90001 8.49547 5.82061 8.4952 5.73771C8.49494 5.65481 8.52762 5.57521 8.58605 5.51641C8.64448 5.4576 8.72387 5.42442 8.80677 5.42415C8.88967 5.42389 8.96927 5.45657 9.02808 5.515L9.6012 6.08437L10.7912 4.5C10.8158 4.46717 10.8467 4.43951 10.882 4.4186C10.9173 4.39769 10.9564 4.38394 10.997 4.37814C11.0376 4.37234 11.079 4.37459 11.1188 4.38478C11.1585 4.39496 11.1959 4.41288 11.2287 4.4375C11.2615 4.46212 11.2892 4.49297 11.3101 4.52828C11.331 4.56359 11.3448 4.60268 11.3506 4.6433C11.3564 4.68393 11.3541 4.7253 11.3439 4.76506C11.3337 4.80481 11.3158 4.84217 11.2912 4.875L9.88495 6.74687C9.77777 6.89656 9.54308 6.91344 9.41495 6.78062L8.58745 5.95875V5.95844Z" fill="white"/>
</svg>
