<svg width="20" height="20" viewBox="0 0 20 20" fill="none" xmlns="http://www.w3.org/2000/svg">
<path d="M16.6759 11.8512L13.3869 13.4316C13.3615 13.1641 13.2595 12.9097 13.0932 12.6988C12.9268 12.4879 12.7032 12.3295 12.4491 12.2425L8.62656 10.9219C8.38505 10.8391 8.12957 10.8047 7.87476 10.8207C7.61994 10.8367 7.37079 10.9029 7.14156 11.0153L5.15563 11.9831L3.88625 12.6131L3.80344 12.4434C3.76671 12.3693 3.70225 12.3127 3.62405 12.2858C3.54584 12.2589 3.46018 12.2639 3.38563 12.2997L1.42563 13.2559C1.35117 13.2923 1.2942 13.3567 1.26724 13.4351C1.24029 13.5134 1.24555 13.5993 1.28188 13.6737L3.67188 18.5741C3.70823 18.6485 3.77267 18.7055 3.85102 18.7324C3.92937 18.7594 4.01522 18.7541 4.08969 18.7178L6.04969 17.7619C6.12414 17.7255 6.18111 17.6611 6.20807 17.5827C6.23503 17.5044 6.22976 17.4185 6.19344 17.3441L6.07219 17.0953L7.16375 16.5522C7.3492 16.4625 7.56246 16.4494 7.7575 16.5156L10.3356 17.4025C10.8235 17.5691 11.3572 17.5377 11.8222 17.315L17.9616 14.345C18.1442 14.2543 18.305 14.1251 18.4329 13.9664C18.5608 13.8076 18.6528 13.623 18.7026 13.4253C18.7524 13.2276 18.7588 13.0215 18.7214 12.8211C18.6839 12.6207 18.6035 12.4307 18.4856 12.2644C18.2801 11.9946 17.9864 11.8055 17.6558 11.73C17.3252 11.6544 16.9782 11.6975 16.6759 11.8512ZM4.09625 18.0197L1.98031 13.6809L3.37875 12.9987L5.495 17.3375L4.09625 18.0197ZM18.1009 13.275C18.0735 13.3845 18.0224 13.4866 17.9512 13.5743C17.8801 13.6619 17.7906 13.7328 17.6891 13.7822L11.5509 16.7516C11.2348 16.9033 10.8717 16.925 10.5397 16.8119L7.9575 15.9237C7.245 15.6281 6.41375 16.2612 5.79813 16.5337L4.16063 13.1759L7.41625 11.5766C7.73134 11.4245 8.09342 11.4019 8.425 11.5134L12.2459 12.8331C12.438 12.9024 12.5951 13.0443 12.6833 13.2284C12.7716 13.4124 12.7839 13.6238 12.7176 13.8169C12.6514 14.01 12.5118 14.1692 12.3292 14.2603C12.1465 14.3514 11.9353 14.367 11.7413 14.3037L8.13125 13.0612C8.05384 13.0378 7.97034 13.0452 7.89831 13.082C7.82629 13.1189 7.77134 13.1822 7.74503 13.2587C7.71873 13.3352 7.72311 13.4189 7.75725 13.4922C7.7914 13.5655 7.85265 13.6228 7.92813 13.6519L11.5425 14.8962C11.8624 15.0023 12.2098 14.9899 12.5214 14.8613C12.833 14.7327 13.088 14.4965 13.24 14.1956L16.9484 12.4137C17.0813 12.3394 17.2329 12.3052 17.3848 12.3152C17.5368 12.3252 17.6825 12.3791 17.8045 12.4702C17.9264 12.5614 18.0194 12.686 18.072 12.8289C18.1246 12.9717 18.1346 13.1265 18.1009 13.275Z" fill="white"/>
<path d="M13.6625 12.2406C13.7454 12.2406 13.8249 12.2077 13.8835 12.1491C13.9421 12.0905 13.975 12.011 13.975 11.9281V9.70312C13.9739 8.98946 13.7289 8.2976 13.2806 7.74229C12.8323 7.18699 12.2077 6.80158 11.5103 6.65C11.88 6.34001 12.1454 5.92376 12.2704 5.45777C12.3954 4.99178 12.374 4.49861 12.209 4.04521C12.0441 3.59181 11.7436 3.20015 11.3485 2.92338C10.9533 2.64661 10.4825 2.49815 10 2.49815C9.51756 2.49815 9.04678 2.64661 8.65159 2.92338C8.2564 3.20015 7.95595 3.59181 7.79102 4.04521C7.62608 4.49861 7.60466 4.99178 7.72966 5.45777C7.85465 5.92376 8.12001 6.34001 8.48971 6.65C7.79233 6.80158 7.1677 7.18699 6.71942 7.74229C6.27114 8.2976 6.02613 8.98946 6.02502 9.70312V10.3625C6.02502 10.4454 6.05795 10.5249 6.11655 10.5835C6.17516 10.6421 6.25464 10.675 6.33752 10.675C6.4204 10.675 6.49989 10.6421 6.55849 10.5835C6.6171 10.5249 6.65002 10.4454 6.65002 10.3625V9.70312C6.65085 9.04034 6.91451 8.40493 7.38317 7.93627C7.85183 7.46761 8.48724 7.20395 9.15002 7.20312H10.85C11.5128 7.20395 12.1482 7.46761 12.6169 7.93627C13.0855 8.40493 13.3492 9.04034 13.35 9.70312V11.9281C13.35 12.011 13.3829 12.0905 13.4416 12.1491C13.5002 12.2077 13.5796 12.2406 13.6625 12.2406ZM8.2744 4.85094C8.2744 4.50964 8.37561 4.17601 8.56522 3.89223C8.75483 3.60845 9.02434 3.38728 9.33966 3.25667C9.65497 3.12606 10.0019 3.09189 10.3367 3.15847C10.6714 3.22505 10.9789 3.3894 11.2202 3.63074C11.4616 3.87207 11.6259 4.17955 11.6925 4.51428C11.7591 4.84902 11.7249 5.19599 11.5943 5.5113C11.4637 5.82662 11.2425 6.09613 10.9587 6.28574C10.675 6.47536 10.3413 6.57656 10 6.57656C9.54254 6.57598 9.10395 6.39399 8.78046 6.0705C8.45697 5.74701 8.27498 5.30842 8.2744 4.85094Z" fill="white"/>
<path d="M2.53443 11.9844C2.56624 11.9845 2.59786 11.9796 2.62818 11.97C2.66733 11.9577 2.70368 11.9378 2.73514 11.9114C2.7666 11.8851 2.79256 11.8528 2.81153 11.8164C2.83051 11.78 2.84214 11.7402 2.84574 11.6993C2.84935 11.6585 2.84487 11.6173 2.83256 11.5781C2.61007 10.865 2.49794 10.122 2.50006 9.375C2.48688 7.38913 3.26198 5.47913 4.65531 4.06405C6.04864 2.64896 7.9464 1.84436 9.93223 1.82678C11.9181 1.80919 13.8298 2.58005 15.248 3.97024C16.6661 5.36043 17.4749 7.2564 17.4969 9.24219L17.4085 9.15406C17.3496 9.09714 17.2706 9.06564 17.1887 9.06635C17.1067 9.06706 17.0284 9.09993 16.9704 9.15787C16.9125 9.21581 16.8796 9.29419 16.8789 9.37612C16.8782 9.45806 16.9097 9.537 16.9666 9.59594L17.5916 10.2209C17.6502 10.2795 17.7297 10.3124 17.8126 10.3124C17.8954 10.3124 17.9749 10.2795 18.0335 10.2209L18.6585 9.59594C18.6883 9.56711 18.7121 9.53263 18.7285 9.4945C18.7449 9.45638 18.7535 9.41537 18.7539 9.37387C18.7542 9.33238 18.7463 9.29123 18.7306 9.25283C18.7149 9.21442 18.6917 9.17953 18.6624 9.15019C18.633 9.12085 18.5981 9.09764 18.5597 9.08193C18.5213 9.06622 18.4802 9.05831 18.4387 9.05867C18.3972 9.05903 18.3562 9.06765 18.3181 9.08403C18.2799 9.10041 18.2454 9.12422 18.2166 9.15406L18.1219 9.24875C18.0965 7.10007 17.2208 5.049 15.6865 3.54452C14.1522 2.04004 12.0844 1.20472 9.93562 1.22142C7.78686 1.23812 5.73224 2.10547 4.22153 3.63361C2.71083 5.16175 1.8671 7.22619 1.87506 9.375C1.87287 10.1856 1.9947 10.9918 2.23631 11.7656C2.2563 11.829 2.29598 11.8844 2.34959 11.9238C2.40319 11.9631 2.46794 11.9843 2.53443 11.9844Z" fill="white"/>
</svg>
