<svg width="20" height="20" viewBox="0 0 20 20" fill="none" xmlns="http://www.w3.org/2000/svg">
<path d="M19.9492 3.88944C19.866 3.63436 19.6879 3.41757 19.4484 3.27968L18.5195 2.74257C18.5195 2.74257 18.5191 2.74257 18.5191 2.74218C18.0121 2.44999 17.3777 2.5953 17.1051 3.066L14.8164 7.03007V3.81796C14.8164 3.14139 14.2664 2.591 13.5906 2.591H1.22578C0.55 2.591 0 3.14139 0 3.81796V16.1828C0 16.8586 0.55 17.4086 1.22578 17.4086H13.5906C14.2664 17.4086 14.8164 16.8586 14.8164 16.1828V13.4269L19.8762 4.66483C20.0105 4.43163 20.0363 4.15624 19.9492 3.88944ZM14.2344 13.1863C14.2324 13.1894 14.2305 13.193 14.2285 13.1961L14.0102 13.5742L13.4363 13.243L18.027 5.29296L18.6012 5.62421L14.2344 13.1863ZM12.3473 14.5058L12.2527 13.2808L13.4559 13.9754L12.3473 14.5058ZM12.8957 12.9308L12.3223 12.5996L16.9121 4.64921L17.4859 4.98046L12.8957 12.9308ZM5.8832 3.21561H8.93359V7.55077L7.59219 6.57733C7.53885 6.53867 7.47466 6.51786 7.40879 6.51786C7.34292 6.51786 7.27873 6.53867 7.22539 6.57733L5.88281 7.55116V3.21561H5.8832ZM13.591 16.7844H1.22578C0.894141 16.7844 0.624609 16.5144 0.624609 16.1832V3.81796C0.624609 3.48593 0.894141 3.21561 1.22578 3.21561H5.25859V8.16288C5.25859 8.28007 5.32461 8.38788 5.42891 8.441C5.48022 8.46716 5.53776 8.47864 5.59518 8.47416C5.6526 8.46968 5.70767 8.44942 5.7543 8.41561L7.40899 7.21561L9.0625 8.41561C9.11588 8.45431 9.18016 8.4751 9.24609 8.47499C9.29453 8.47499 9.34297 8.46366 9.38789 8.441C9.43915 8.41484 9.48218 8.37502 9.51224 8.32594C9.54229 8.27686 9.5582 8.22043 9.5582 8.16288V3.21561H13.591C13.9227 3.21561 14.1922 3.48593 14.1922 3.81796V8.1121L11.6449 12.5242C11.6 12.6007 11.5799 12.6893 11.5875 12.7777L11.7422 14.7824C11.7523 14.9332 11.8391 15.0703 11.9762 15.1508C12.05 15.193 12.1301 15.2141 12.2102 15.2141C12.2773 15.2141 12.3445 15.1992 12.4078 15.1691L14.1918 14.3152V16.1832C14.1922 16.5144 13.9223 16.7844 13.591 16.7844ZM19.3352 4.35272L18.9133 5.08319L17.2242 4.10819L17.6453 3.3785C17.7438 3.20819 18.0012 3.16483 18.207 3.28319L19.1359 3.8203C19.2418 3.88124 19.3195 3.9746 19.3551 4.0828C19.3871 4.17968 19.3797 4.27538 19.3352 4.35272ZM5.47109 13.5555C5.47109 13.7281 5.33125 13.8676 5.15899 13.8676H2.77617C2.60391 13.8676 2.46406 13.7277 2.46406 13.5555C2.46406 13.3832 2.60391 13.2433 2.77617 13.2433H5.15899C5.33125 13.2433 5.47109 13.3832 5.47109 13.5555ZM5.47109 15.1566C5.47109 15.3293 5.33125 15.4687 5.15899 15.4687H2.77617C2.60391 15.4687 2.46406 15.3289 2.46406 15.1566C2.46406 14.9844 2.60391 14.8445 2.77617 14.8445H5.15899C5.33125 14.8445 5.47109 14.984 5.47109 15.1566Z" fill="white"/>
</svg>
