<svg width="20" height="20" viewBox="0 0 20 20" fill="none" xmlns="http://www.w3.org/2000/svg">
<path fill-rule="evenodd" clip-rule="evenodd" d="M8.07579 17.0833L7.24246 18.75H6.24996C6.13945 18.75 6.03347 18.7939 5.95533 18.872C5.87719 18.9502 5.83329 19.0562 5.83329 19.1667C5.83329 19.2772 5.87719 19.3832 5.95533 19.4613C6.03347 19.5394 6.13945 19.5833 6.24996 19.5833H13.75C13.8605 19.5833 13.9664 19.5394 14.0446 19.4613C14.1227 19.3832 14.1666 19.2772 14.1666 19.1667C14.1666 19.0562 14.1227 18.9502 14.0446 18.872C13.9664 18.7939 13.8605 18.75 13.75 18.75H12.7575L11.9241 17.0833H18.3333C18.6648 17.0833 18.9828 16.9516 19.2172 16.7172C19.4516 16.4828 19.5833 16.1649 19.5833 15.8333V4.16666C19.5833 3.83514 19.4516 3.5172 19.2172 3.28278C18.9828 3.04836 18.6648 2.91666 18.3333 2.91666H1.66663C1.33511 2.91666 1.01716 3.04836 0.782743 3.28278C0.548322 3.5172 0.416626 3.83514 0.416626 4.16666V15.8333C0.416626 16.1649 0.548322 16.4828 0.782743 16.7172C1.01716 16.9516 1.33511 17.0833 1.66663 17.0833H8.07579ZM9.00746 17.0833H10.9925L11.8258 18.75H8.17413L9.00746 17.0833ZM18.75 14.5833V15.8333C18.75 15.9438 18.7061 16.0498 18.6279 16.128C18.5498 16.2061 18.4438 16.25 18.3333 16.25H1.66663C1.55612 16.25 1.45014 16.2061 1.372 16.128C1.29386 16.0498 1.24996 15.9438 1.24996 15.8333V14.5833H18.75ZM18.75 13.75H1.24996V4.16666C1.24996 4.05616 1.29386 3.95018 1.372 3.87204C1.45014 3.7939 1.55612 3.75 1.66663 3.75H18.3333C18.4438 3.75 18.5498 3.7939 18.6279 3.87204C18.7061 3.95018 18.75 4.05616 18.75 4.16666V13.75Z" fill="white"/>
<path fill-rule="evenodd" clip-rule="evenodd" d="M16.25 4.99999V12.5C16.25 12.6105 16.2939 12.7165 16.3721 12.7946C16.4502 12.8728 16.5562 12.9167 16.6667 12.9167C16.7772 12.9167 16.8832 12.8728 16.9613 12.7946C17.0395 12.7165 17.0834 12.6105 17.0834 12.5V4.99999C17.0834 4.88949 17.0395 4.78351 16.9613 4.70537C16.8832 4.62723 16.7772 4.58333 16.6667 4.58333C16.5562 4.58333 16.4502 4.62723 16.3721 4.70537C16.2939 4.78351 16.25 4.88949 16.25 4.99999ZM14.5834 6.66666V12.5C14.5834 12.6105 14.6273 12.7165 14.7054 12.7946C14.7836 12.8728 14.8895 12.9167 15 12.9167C15.1105 12.9167 15.2165 12.8728 15.2947 12.7946C15.3728 12.7165 15.4167 12.6105 15.4167 12.5V6.66666C15.4167 6.55615 15.3728 6.45017 15.2947 6.37203C15.2165 6.29389 15.1105 6.24999 15 6.24999C14.8895 6.24999 14.7836 6.29389 14.7054 6.37203C14.6273 6.45017 14.5834 6.55615 14.5834 6.66666ZM12.9167 7.96291V12.5C12.9167 12.6105 12.9606 12.7165 13.0387 12.7946C13.1169 12.8728 13.2229 12.9167 13.3334 12.9167C13.4439 12.9167 13.5499 12.8728 13.628 12.7946C13.7061 12.7165 13.75 12.6105 13.75 12.5V7.96291C13.75 7.8524 13.7061 7.74642 13.628 7.66828C13.5499 7.59014 13.4439 7.54625 13.3334 7.54625C13.2229 7.54625 13.1169 7.59014 13.0387 7.66828C12.9606 7.74642 12.9167 7.8524 12.9167 7.96291ZM11.25 8.97125V12.5C11.25 12.6105 11.2939 12.7165 11.3721 12.7946C11.4502 12.8728 11.5562 12.9167 11.6667 12.9167C11.7772 12.9167 11.8832 12.8728 11.9613 12.7946C12.0395 12.7165 12.0834 12.6105 12.0834 12.5V8.97125C12.0834 8.86074 12.0395 8.75476 11.9613 8.67662C11.8832 8.59848 11.7772 8.55458 11.6667 8.55458C11.5562 8.55458 11.4502 8.59848 11.3721 8.67662C11.2939 8.75476 11.25 8.86074 11.25 8.97125ZM5.83337 4.58333C3.76379 4.58333 2.08337 6.26374 2.08337 8.33333C2.08337 10.4029 3.76379 12.0833 5.83337 12.0833C7.90296 12.0833 9.58337 10.4029 9.58337 8.33333C9.58337 6.26374 7.90296 4.58333 5.83337 4.58333ZM5.41671 5.44625C4.72267 5.54686 4.08806 5.894 3.62898 6.42416C3.16991 6.95431 2.91706 7.63203 2.91671 8.33333C2.91671 9.94291 4.22379 11.25 5.83337 11.25C6.53467 11.2496 7.21239 10.9968 7.74255 10.5377C8.2727 10.0786 8.61984 9.44404 8.72046 8.75H6.66671C6.33519 8.75 6.01724 8.6183 5.78282 8.38388C5.5484 8.14946 5.41671 7.83152 5.41671 7.49999V5.44625ZM6.25004 5.44625V7.49999C6.25004 7.6105 6.29394 7.71648 6.37208 7.79462C6.45022 7.87276 6.5562 7.91666 6.66671 7.91666H8.72046C8.62992 7.29364 8.3405 6.71655 7.89533 6.27137C7.45016 5.8262 6.87306 5.53679 6.25004 5.44625Z" fill="white"/>
</svg>
