<svg width="91" height="36" viewBox="0 0 91 36" fill="none" xmlns="http://www.w3.org/2000/svg">
<g clip-path="url(#clip0_394_4340)">
<path d="M5.75705 32.4551C5.7725 33.2463 5.6875 33.8979 5.1543 34.5184C4.62109 35.139 3.8097 35.4958 2.9983 35.4958C1.36005 35.4958 0 34.1306 0 32.4861C0 30.8416 1.36005 29.4454 3.03694 29.4454C4.05698 29.4454 4.88383 29.903 5.50204 30.7098L5.03066 31.1519C4.54382 30.4615 3.88697 30.0504 3.02921 30.0504C1.70007 30.0504 0.649117 31.1752 0.649117 32.4939C0.649117 33.1144 0.896399 33.7039 1.32914 34.1461C1.75416 34.5727 2.37237 34.8908 2.98285 34.8908C3.99516 34.8908 5.06157 34.1461 5.06157 33.0601H3.33059V32.4551H5.75705Z" fill="#808285"/>
<path d="M7.67353 34.7899H9.28087V35.395H7.02441V29.5462H7.67353V34.7899Z" fill="#808285"/>
<path d="M10.9345 35.395H10.2854V29.5462H10.9345V35.395Z" fill="#808285"/>
<path d="M14.0101 35.395H13.361V30.1513H11.9546V29.5462H15.432V30.1513H14.0101V35.395Z" fill="#808285"/>
<path d="M17.9899 35.395H17.3407V30.1513H15.9343V29.5462H19.4117V30.1513H17.9899V35.395Z" fill="#808285"/>
<path d="M20.424 29.5462H23.4454V30.1513H21.0731V31.8888H23.3759V32.4939H21.0731V34.7899H23.4454V35.395H20.424V29.5462Z" fill="#808285"/>
<path d="M25.5474 35.395H24.8983V29.5462H25.7406C26.8457 29.5462 27.8734 29.841 27.8734 31.1597C27.8734 32.0595 27.3093 32.6955 26.4129 32.7731L28.2675 35.395H27.4716L25.7097 32.8274H25.5474V35.395ZM25.5474 32.2534H25.7483C26.4825 32.2534 27.2243 32.1138 27.2243 31.2062C27.2243 30.2443 26.5211 30.1513 25.7406 30.1513H25.5474V32.2534Z" fill="#808285"/>
<path d="M33.3987 34.1771C33.3987 34.6425 33.3987 35.1312 33.105 35.5191C32.8655 35.8371 32.4945 36 32.1004 36C31.7063 36 31.3586 35.8138 31.0649 35.5656L31.4281 35.0614C31.6368 35.2553 31.8145 35.395 32.1159 35.395C32.7496 35.395 32.7496 34.6348 32.7496 34.1771V29.5462H33.3987V34.1771Z" fill="#808285"/>
<path d="M34.9364 29.5462H37.9579V30.1513H35.5855V31.8888H37.8883V32.4939H35.5855V34.7899H37.9579V35.395H34.9364V29.5462Z" fill="#808285"/>
<path d="M41.1571 33.9289L43.0426 29.2437L44.9282 33.9289L46.4582 29.5462H47.1614L44.9282 35.6975L43.0426 30.989L41.1571 35.6975L38.9238 29.5462H39.627L41.1571 33.9289Z" fill="#808285"/>
<path d="M48.1892 29.5462H51.2107V30.1513H48.8383V31.8888H51.1411V32.4939H48.8383V34.7899H51.2107V35.395H48.1892V29.5462Z" fill="#808285"/>
<path d="M53.3126 34.7899H54.9199V35.395H52.6635V29.5462H53.3126V34.7899Z" fill="#808285"/>
<path d="M58.5519 30.6865C58.3201 30.2831 58.0419 30.0504 57.5473 30.0504C57.0527 30.0504 56.5814 30.4228 56.5814 30.958C56.5814 31.4622 57.0991 31.6949 57.4932 31.8733L57.8796 32.044C58.6369 32.3775 59.2783 32.7576 59.2783 33.6884C59.2783 34.7123 58.4592 35.4958 57.4468 35.4958C56.5118 35.4958 55.8163 34.8908 55.6309 33.9832L56.2645 33.8048C56.3495 34.4021 56.8055 34.8908 57.4314 34.8908C58.0573 34.8908 58.6292 34.4098 58.6292 33.7505C58.6292 33.0911 58.096 32.8352 57.555 32.5869L57.1996 32.4318C56.5195 32.1215 55.9322 31.7725 55.9322 30.9347C55.9322 30.0272 56.6973 29.4454 57.5628 29.4454C58.2119 29.4454 58.7605 29.7789 59.0696 30.3529L58.5519 30.6865Z" fill="#808285"/>
<path d="M63.9534 34.7899H65.5608V35.395H63.3043V29.5462H63.9534V34.7899Z" fill="#808285"/>
<path d="M67.2145 35.395H66.5654V29.5462H67.2145V35.395Z" fill="#808285"/>
<path d="M69.5019 29.2127L71.6193 34.1228L73.7443 29.2127L74.9267 35.395H74.2621L73.5125 31.4389H73.4971L71.6193 35.6354L69.7492 31.4389H69.7337L68.9841 35.395H68.3196L69.5019 29.2127Z" fill="#808285"/>
<path d="M76.6807 35.395H76.0316V29.5462H76.6807V35.395Z" fill="#808285"/>
<path d="M79.7563 35.395H79.1072V30.1513H77.7008V29.5462H81.1782V30.1513H79.7563V35.395Z" fill="#808285"/>
<path d="M82.1906 29.5462H85.212V30.1513H82.8397V31.8888H85.1425V32.4939H82.8397V34.7899H85.212V35.395H82.1906V29.5462Z" fill="#808285"/>
<path d="M86.6648 29.5462H87.7621C88.6353 29.5462 89.3463 29.6626 90.034 30.2521C90.6986 30.8261 91 31.6096 91 32.4783C91 33.3471 90.6909 34.084 90.0495 34.658C89.354 35.2786 88.6585 35.395 87.7467 35.395H86.6648V29.5462ZM87.7853 34.7899C88.4962 34.7899 89.0913 34.6891 89.6245 34.1849C90.1036 33.735 90.3508 33.1222 90.3508 32.4706C90.3508 31.819 90.0958 31.1597 89.5935 30.7175C89.0603 30.2443 88.473 30.1513 87.7853 30.1513H87.3139V34.7899H87.7853Z" fill="#808285"/>
<path d="M33.6613 22.1771C32.4828 21.32 31.7951 19.6057 31.2542 18.2521C28.8432 12.1707 26.4244 6.08533 24.0018 0H23.8782C23.3952 1.21784 22.9122 2.4318 22.4331 3.64189C22.3249 3.9095 22.2245 4.1616 22.1279 4.41758C21.8227 5.23594 21.5831 5.99224 21.4054 6.69813C21.4015 6.70588 21.4015 6.70976 21.4015 6.71364C21.386 6.78733 21.3667 6.86102 21.3551 6.93083C21.2817 7.22172 21.2238 7.49709 21.1851 7.76471C20.9919 8.96315 21.0306 9.96768 21.3165 10.7628C21.6449 11.7091 22.294 12.3607 23.3527 12.8145C23.7391 12.9968 24.0907 13.1015 24.4346 13.1984L24.5389 13.2217C25.358 13.435 25.358 13.5087 25.358 13.5747C25.3542 13.8423 25.0103 13.8655 24.5157 13.9005C24.4346 13.9121 24.3496 13.916 24.2607 13.9237C22.7461 13.9703 19.2919 14.4085 17.0354 17.8371C16.0347 19.3575 15.7951 22.6697 11.2938 22.7279V22.8597H20.2424V22.7279C19.0639 22.7279 17.9705 22.1461 17.3445 21.1959C17.1977 20.967 17.0818 20.7149 17.0084 20.4512C16.9388 20.1875 16.9118 19.916 16.9234 19.6445C16.935 19.3575 16.9852 19.0782 17.0702 18.8106C17.1552 18.512 17.2788 18.2327 17.4218 17.9651C17.5802 17.6781 17.7695 17.4066 17.9743 17.1467C18.1907 16.8714 18.4341 16.6154 18.693 16.3827C18.9673 16.1306 19.261 15.8979 19.5623 15.6923C19.8869 15.4751 20.223 15.2812 20.5708 15.1105C20.934 14.9321 21.3088 14.7809 21.6913 14.6606C22.0893 14.5365 22.4949 14.4396 22.9045 14.3697C23.3373 14.2999 23.7739 14.2689 24.2143 14.2728C24.4809 14.2728 24.7514 14.2573 25.0103 14.2224C25.1764 14.1991 25.3503 14.1719 25.501 14.0866C25.6903 13.978 25.7521 13.788 25.756 13.5902C25.7599 13.2372 25.4508 13.1209 24.8016 12.927L24.6548 12.8882C24.3225 12.8145 23.9246 12.671 23.5266 12.5275C22.6456 12.1396 22.0815 11.5501 21.7686 10.7162C21.2508 9.32385 21.5058 7.23335 22.5375 4.49515C22.5993 4.33613 22.6572 4.17324 22.719 4.02198C24.9562 9.62637 27.1856 15.2385 29.415 20.8352C29.5734 21.2579 29.5 21.7505 29.2489 22.1383C29.0209 22.4913 28.5997 22.7317 28.1438 22.7317H26.6485V22.8558H35.3305V22.7317C34.6891 22.7317 34.1404 22.5184 33.669 22.1849V22.1771H33.6613Z" fill="#455A9B"/>
<path d="M74.4398 1.32644C72.8711 0.480931 71.0088 0 68.9262 0H57.0759V0.135747H58.0148C58.8455 0.135747 59.5913 0.205559 60.1129 0.667098C60.5688 1.0627 60.847 1.76471 60.847 2.97479V19.3264C60.847 21.7078 59.7303 22.6115 58.3162 22.7201H58.3046C58.2119 22.7279 58.1114 22.7279 58.0148 22.7279H57.0759V22.8597H68.9262C75.7805 22.8597 80.135 17.7324 80.135 11.4299C80.135 7.04719 78.0293 3.23465 74.4398 1.32644ZM68.5939 22.7317H67.3188V22.724H66.3413C66.2486 22.724 66.1636 22.724 66.0863 22.7162H66.0515C64.6683 22.6076 63.6096 21.7699 63.5478 19.5514V2.97479C63.5478 0.391726 64.7803 0.135747 66.3413 0.135747H67.3188L68.5939 0.131868C71.1865 0.131868 73.1184 1.28377 74.4591 3.0446C76.1321 5.23206 76.8894 8.36587 76.8894 11.4299C76.8894 16.98 74.4128 22.7317 68.5939 22.7317Z" fill="#455A9B"/>
<path d="M45.6468 0.0271492V0.159017C46.8137 0.159017 47.8839 0.740788 48.5369 1.68714C49.186 2.66451 49.3174 3.87072 48.8885 4.94506L43.2744 19.0937L36.4896 2.04008C36.3235 1.61732 36.393 1.13251 36.6132 0.771816C36.876 0.383969 37.2971 0.155139 37.7492 0.155139H39.2136V0.0271492H30.578V0.159017C32.8538 0.159017 33.8893 2.73045 34.635 4.65417L41.8448 22.8403H41.9762L49.0199 5.14674C49.8004 3.22301 51.2609 0.159017 54.5721 0.159017V0.0271492H45.6429H45.6468Z" fill="#455A9B"/>
<path d="M21.5329 12.861C21.0576 12.6826 20.6867 12.3025 20.4588 11.8526C20.2192 11.3756 20.0762 10.7705 20.1033 10.2314C20.1072 10.1267 20.0299 10.0375 19.9256 10.0297H19.8753C19.8019 10.0181 19.7324 10.0569 19.6937 10.1189C19.1953 10.9373 18.2757 11.5773 17.2827 11.5307C17.1629 11.5268 16.9002 11.4687 16.8191 11.585C16.7147 11.7363 16.9273 11.8681 17.0161 11.9457C17.2711 12.1668 17.4914 12.4266 17.673 12.7136C18.0284 13.276 18.2448 13.9354 18.3066 14.6025C18.3144 14.6878 18.38 14.7576 18.4612 14.777L18.5616 14.7964C18.5616 14.7964 18.5848 14.7964 18.5964 14.7964C18.6544 14.7964 18.7085 14.7692 18.7471 14.7266C19.118 14.2689 19.5933 13.9005 20.1187 13.6406C20.3892 13.5087 20.6713 13.404 20.961 13.3264C21.1426 13.2799 21.6179 13.2993 21.6527 13.0743C21.6681 12.9851 21.614 12.8959 21.529 12.8649L21.5329 12.861Z" fill="#BCAA8F"/>
</g>
<defs>
<clipPath id="clip0_394_4340">
<rect width="91" height="36" fill="white"/>
</clipPath>
</defs>
</svg>
